<?xml version="1.0" standalone="no"?>
<!DOCTYPE svg PUBLIC "-//W3C//DTD SVG 20010904//EN"
 "http://www.w3.org/TR/2001/REC-SVG-20010904/DTD/svg10.dtd">
<svg version="1.0" xmlns="http://www.w3.org/2000/svg"
 width="2084.000000pt" height="2084.000000pt" viewBox="0 0 2084.000000 2084.000000"
 preserveAspectRatio="xMidYMid meet">

<g transform="translate(0.000000,2084.000000) scale(0.100000,-0.100000)"
fill="#000000" stroke="none">
<path d="M2918 20532 l-2608 -2 0 -6119 0 -6119 295 -247 295 -247 2 -3446 3
-3447 4122 -3 4122 -2 353 -295 353 -295 5342 0 5343 0 0 10116 0 10115 -7507
-3 c-4130 -2 -8681 -4 -10115 -6z m9682 -4469 c-209 -605 -577 -1666 -605
-1741 -5 -13 -21 -8 -58 20 -20 15 -32 -22 427 1317 97 282 175 515 174 516
-2 1 -293 -44 -648 -100 -1315 -209 -1986 -315 -2010 -317 -23 -2 -110 46
-110 61 0 3 249 46 553 95 303 49 948 153 1432 231 484 79 890 143 902 144 21
1 18 -11 -57 -226z m-440 -235 c-21 -62 -95 -277 -165 -478 -70 -201 -167
-482 -216 -625 -50 -143 -93 -263 -97 -267 -4 -3 -171 -32 -371 -63 l-365 -58
-137 69 -138 68 -183 -28 c-101 -15 -309 -47 -463 -71 -269 -42 -601 -94
-1570 -246 -247 -39 -484 -79 -525 -89 -169 -43 -325 -110 -417 -179 l-48 -37
-532 336 -532 335 47 48 c153 156 456 309 775 392 185 48 276 64 842 155 672
108 985 159 1015 166 21 5 3 17 -110 74 -74 38 -130 69 -124 69 6 1 246 39
535 86 288 47 947 153 1464 236 517 83 1030 165 1140 184 110 18 203 33 207
34 4 1 -11 -50 -32 -111z m4010 -2065 c0 -21 -51 -1141 -80 -1777 -11 -242
-22 -441 -24 -444 -2 -2 -20 7 -40 20 -44 28 -42 -25 -17 563 50 1145 64 1535
57 1542 -3 4 -287 -39 -629 -95 -342 -56 -804 -131 -1027 -168 -223 -36 -405
-66 -405 -67 -4 -9 -219 -247 -224 -247 -3 0 -19 10 -34 23 l-28 22 121 142
121 141 72 13 c575 97 2089 347 2110 348 19 1 27 -4 27 -16z m-320 -345 c0
-32 -24 -569 -54 -1207 -8 -167 -17 -305 -19 -308 -3 -2 -41 14 -86 36 -96 49
-87 62 -95 -139 -10 -231 -65 -1454 -86 -1895 -10 -231 -26 -575 -35 -765 -9
-189 -18 -346 -19 -348 -3 -3 -2333 1462 -2349 1477 -4 4 259 52 584 107 325
54 595 101 599 104 8 5 18 187 35 605 3 72 16 398 30 725 13 327 26 639 28
693 l4 98 -90 45 -89 45 6 72 c3 40 8 151 12 247 l6 176 787 131 c432 72 796
131 809 132 18 1 22 -4 22 -31z m-4449 -1188 c-7 -129 -18 -374 -26 -544 -8
-170 -16 -310 -17 -312 -2 -1 -272 167 -600 374 l-597 377 6 95 c3 52 7 96 8
98 2 2 279 50 616 106 l614 103 3 -31 c2 -17 -1 -137 -7 -266z"/>
</g>
</svg>
